<svg xmlns="http://www.w3.org/2000/svg" viewBox="0 400 1200 360"><g fill="#FFF"><path d="M537 513c0 1-2 3-4 3h-19v89c0 1-2 3-4 3h-18c-2 0-3-2-3-3v-89h-20c-2 0-3-2-3-3v-17c0-1 1-3 3-3h64c2 0 4 2 4 3v17zM582 563h-8v42c0 1-2 3-4 3h-18c-2 0-3-2-3-3V497c0-1 1-2 3-2h36c6 0 39 0 39 34 0 17-9 26-20 30l11 23 10 22c0 2-1 4-3 4h-20l-3-2-20-43zm-8-22h14c4 0 14-1 14-12 0-10-11-11-14-11h-14v23zM647 571v-73c0-1 2-3 4-3h17c2 0 4 2 4 3v73c1 9 9 15 19 15 9 0 18-5 18-15v-73c0-1 2-3 4-3h18c2 0 3 2 3 3v73c0 24-19 39-43 39s-44-15-44-39zM780 493c28 0 67 7 67 58 0 49-38 57-67 57h-18c-2 0-3-2-3-3V496c0-1 1-3 3-3h18zm4 91c13 0 38-2 38-33 0-25-16-34-38-34v67zM897 516v70h9l4 2v17c0 1-2 3-4 3h-43c-2 0-4-2-4-3v-17l4-2h9v-70h-9c-2 0-3-2-3-3v-17c0-1 1-3 3-3h43c2 0 3 2 3 3v17c0 1-1 3-3 3h-9zM1025 540c2 0 3 2 3 3v63c0 1-1 2-3 2h-16l-4-2v-6c-8 7-17 10-28 10-31 0-56-22-56-59 0-34 26-59 58-59 16 0 31 7 41 17v4l-13 13c-1 1-4 1-4-1-7-6-15-9-24-9-18 0-33 13-33 35 0 24 15 35 33 35 9 0 18-4 24-11v-12h-16c-2 0-4-1-4-3v-17c0-1 2-3 4-3h38zM1081 516v70h9l4 2v17c0 1-2 3-4 3h-44c-2 0-3-2-3-3v-17c0-1 1-2 3-2h10v-70h-9c-2 0-3-2-3-3v-17c0-1 1-3 3-3h43c2 0 3 2 3 3v17c0 1-1 3-3 3h-9z"/></g><linearGradient id="a" gradientUnits="userSpaceOnUse" x1="372.1" y1="426.2" x2="32.1" y2="716.8"><stop offset="0" stop-color="#ff7200"/><stop offset="1" stop-color="#bf2a00"/></linearGradient><path fill="url(#a)" d="M250 418H66v37h1c0 20 15 37 36 37v1h94v127h1c2 16 16 28 32 28v1h32v-32-1-121c10 1 18 2 22 4a91 91 0 11-125 89v-6c0-20-16-36-37-37H84v38h1a165 165 0 10165-165z"/><linearGradient id="b" gradientUnits="userSpaceOnUse" x1="174.7" y1="614.9" x2="485.1" y2="617.7"><stop offset="0" stop-color="#ff7200"/><stop offset="1" stop-color="#bf2a00"/></linearGradient><path fill="url(#b)" d="M262 614v0z"/><linearGradient id="c" gradientUnits="userSpaceOnUse" x1="176.7" y1="614.6" x2="480" y2="617.3"><stop offset="0" stop-color="#ff7200"/><stop offset="1" stop-color="#bf2a00"/></linearGradient><path fill="url(#c)" d="M278 493l-16 1v1c10 1 18 2 22 4a91 91 0 11-125 89v-5a123 123 0 10119-90z"/><g fill="#F1F2F2"><path d="M489 642c8 0 17 4 19 13h-11c-1-3-4-5-8-5-6 0-10 4-10 10 0 5 4 10 10 10 4 0 8-2 9-6h10c-2 10-11 14-19 14-11 0-21-6-21-18s10-18 21-18zM545 660c0-24 41-24 41 0s-41 24-41 0zm31 0c0-13-20-13-20 0s20 13 20 0zM662 642h3v36h-10v-16l-9 8h-1l-9-8v16h-10v-36h4l15 15 17-15zM743 642h4v36h-11v-16l-9 8h-1l-8-8v16h-11v-36h4l16 15 16-15zM810 666v-24h10v24c0 8-7 12-16 12-8 0-16-4-16-12v-24h10v24c0 3 3 4 6 4s6-1 6-4zM873 660v18h-11v-36h4l20 18v-18h11v36h-4l-20-18zM956 670v8h-21v-8h6v-20h-5v-8h20v8h-5v20h5zM990 650v-8h30v8h-9v28h-11v-28h-10zM1078 678h-10v-15l-14-19v-2h11l7 12h1l7-12h11v2l-13 19v15z"/></g></svg>